<svg width="396" height="95" viewBox="0 0 396 95" fill="none" xmlns="http://www.w3.org/2000/svg">
<path d="M247.322 74.6487V94.8666H244.703V80.4775C244.703 80.2617 244.708 80.0317 244.717 79.7877C244.736 79.5436 244.755 79.2949 244.774 79.0415L238.044 91.389C237.809 91.849 237.448 92.0789 236.96 92.0789H236.537C236.049 92.0789 235.692 91.849 235.467 91.389L228.611 78.9992C228.667 79.5248 228.695 80.0176 228.695 80.4775V94.8666H226.062V74.6487H228.287C228.55 74.6487 228.751 74.6768 228.892 74.7332C229.042 74.7801 229.183 74.9209 229.315 75.1556L236.073 87.2638C236.204 87.5078 236.326 87.766 236.439 88.0382C236.551 88.3104 236.659 88.5826 236.763 88.8548C236.96 88.301 237.19 87.7659 237.452 87.2497L244.084 75.1556C244.206 74.9209 244.337 74.7801 244.478 74.7332C244.628 74.6768 244.835 74.6487 245.097 74.6487H247.322Z" fill="white"/>
<path d="M206.994 94.8666H203.981V74.6487H206.994V94.8666Z" fill="white"/>
<path d="M187.162 94.8666H184.191C183.975 94.8666 183.801 94.8103 183.67 94.6977C183.539 94.5757 183.435 94.4489 183.36 94.3175L178.137 85.9966C178.062 86.2313 177.972 86.4331 177.869 86.6021L172.787 94.3175C172.693 94.4489 172.585 94.5757 172.463 94.6977C172.341 94.8103 172.186 94.8666 171.998 94.8666H169.196L176.109 84.462L169.492 74.6487H172.463C172.679 74.6487 172.838 74.6815 172.941 74.7473C173.045 74.813 173.134 74.9115 173.209 75.0429L178.32 82.9696C178.395 82.7255 178.498 82.5003 178.63 82.2938L183.417 75.0992C183.501 74.9491 183.595 74.8364 183.698 74.7613C183.801 74.6862 183.933 74.6487 184.092 74.6487H186.95L180.291 84.3353L187.162 94.8666Z" fill="white"/>
<path d="M153.691 92.4309L153.677 94.8666H141.146V74.6487H153.677V77.0844H144.159V83.4905H151.818V85.8418H144.159V92.4309H153.691Z" fill="white"/>
<path d="M355.536 25.5962H358.197C359.267 25.5962 360.154 25.4555 360.858 25.1739C361.562 24.8641 362.167 24.3854 362.674 23.7378L379.527 2.40757C380.231 1.50649 380.963 0.886999 381.723 0.549096C382.512 0.183033 383.497 0 384.68 0H394.479L373.909 25.3851C372.699 26.9338 371.445 28.032 370.15 28.6796C371.079 29.0175 371.91 29.4962 372.642 30.1157C373.403 30.707 374.121 31.4955 374.796 32.481L396 61.0762H385.989C384.638 61.0762 383.624 60.8932 382.948 60.5271C382.301 60.1329 381.752 59.5697 381.301 58.8376L364.026 36.2825C363.491 35.5222 362.871 34.9872 362.167 34.6774C361.463 34.3677 360.45 34.2128 359.126 34.2128H355.536V61.0762H344.174V0H355.536V25.5962Z" fill="white"/>
<path d="M330.573 0V61.0762H324.744C323.843 61.0762 323.082 60.9354 322.463 60.6538C321.872 60.3441 321.294 59.8372 320.731 59.1332L288.841 18.4158C289.01 20.2743 289.095 21.9919 289.095 23.5688V61.0762H279.084V0H285.04C285.519 0 285.927 0.0281587 286.265 0.0844753C286.631 0.112635 286.941 0.197112 287.194 0.337905C287.476 0.450542 287.743 0.633573 287.997 0.887C288.25 1.11227 288.532 1.42201 288.841 1.81623L320.858 42.7026C320.773 41.7171 320.703 40.7456 320.647 39.7882C320.59 38.8308 320.562 37.9438 320.562 37.1272V0H330.573Z" fill="white"/>
<path d="M265.41 61.0762H254.006V0H265.41V61.0762Z" fill="white"/>
<path d="M245.893 51.6993V61.0762H210.118V0H221.48V51.6993H245.893Z" fill="white"/>
<path d="M174.293 29.0598C176.433 29.0598 178.292 28.7923 179.869 28.2572C181.474 27.7222 182.783 26.9901 183.797 26.0609C184.839 25.1035 185.613 23.9771 186.12 22.6818C186.627 21.3865 186.88 19.9645 186.88 18.4158C186.88 15.3183 185.852 12.9389 183.797 11.2776C181.769 9.61619 178.658 8.78551 174.462 8.78551H167.197V29.0598H174.293ZM203.522 61.0762H193.258C191.315 61.0762 189.907 60.3159 189.034 58.7953L176.194 39.2391C175.715 38.507 175.18 37.9861 174.589 37.6763C174.026 37.3666 173.181 37.2117 172.055 37.2117H167.197V61.0762H155.835V0H174.462C178.602 0 182.15 0.436459 185.106 1.30938C188.091 2.15414 190.527 3.35088 192.413 4.89961C194.328 6.44834 195.736 8.30681 196.637 10.475C197.538 12.6151 197.989 14.9804 197.989 17.571C197.989 19.6266 197.679 21.5696 197.06 23.3999C196.468 25.2302 195.595 26.8915 194.441 28.384C193.315 29.8764 191.907 31.1857 190.217 32.3121C188.556 33.4384 186.655 34.3254 184.515 34.9731C185.247 35.3955 185.923 35.9023 186.542 36.4937C187.162 37.0568 187.725 37.7326 188.232 38.5211L203.522 61.0762Z" fill="white"/>
<path d="M118.649 9.03894V25.9764H140.022V34.7197H118.649V51.995H145.766V61.0762H107.245V0H145.766V9.03894H118.649Z" fill="white"/>
<path d="M100.923 0L76.2562 61.0762H65.9924L41.3254 0H50.4488C51.4343 0 52.2369 0.23935 52.8563 0.718049C53.4758 1.19675 53.9405 1.81624 54.2502 2.57652L68.6534 39.8305C69.1321 41.0413 69.5826 42.3788 70.005 43.8431C70.4555 45.2792 70.8779 46.7856 71.2721 48.3625C71.61 46.7856 71.9761 45.2792 72.3703 43.8431C72.7645 42.3788 73.201 41.0413 73.6797 39.8305L87.9984 2.57652C88.2236 1.92887 88.6601 1.33754 89.3078 0.802525C89.9836 0.267508 90.8002 0 91.7576 0H100.923Z" fill="white"/>
<path d="M11.4043 9.03894V25.9764H32.7767V34.7197H11.4043V51.995H38.5211V61.0762H0V0H38.5211V9.03894H11.4043Z" fill="white"/>
</svg>
