<svg width="18" height="18" viewBox="0 0 18 18" fill="none" xmlns="http://www.w3.org/2000/svg">
<path d="M4.81387 5.65106H2.30228C1.38137 5.65106 0.627896 4.89759 0.627896 3.97667V2.30228C0.627896 1.38137 1.38137 0.627896 2.30228 0.627896H4.81387C5.73478 0.627896 6.48825 1.38137 6.48825 2.30228V3.97667C6.48825 4.89759 5.73478 5.65106 4.81387 5.65106Z" stroke="white" stroke-width="1.25" stroke-linecap="round" stroke-linejoin="round"/>
<path d="M16.367 4.81403H13.3531C12.8005 4.81403 12.3484 4.36193 12.3484 3.80939V2.4699C12.3484 1.91735 12.8005 1.46525 13.3531 1.46525H16.367C16.9195 1.46525 17.3716 1.91735 17.3716 2.4699V3.80939C17.3716 4.36193 16.9195 4.81403 16.367 4.81403Z" stroke="white" stroke-width="1.25" stroke-linecap="round" stroke-linejoin="round"/>
<path d="M16.367 11.093H13.3531C12.8005 11.093 12.3484 10.6409 12.3484 10.0883V8.74885C12.3484 8.1963 12.8005 7.74421 13.3531 7.74421H16.367C16.9195 7.74421 17.3716 8.1963 17.3716 8.74885V10.0883C17.3716 10.6409 16.9195 11.093 16.367 11.093Z" stroke="white" stroke-width="1.25" stroke-linecap="round" stroke-linejoin="round"/>
<path d="M6.48817 3.13948H12.3485" stroke="white" stroke-width="1.25" stroke-miterlimit="10" stroke-linecap="round" stroke-linejoin="round"/>
<path d="M9.41843 3.13948V14.023C9.41843 14.9439 10.1719 15.6974 11.0928 15.6974H12.3486" stroke="white" stroke-width="1.25" stroke-miterlimit="10" stroke-linecap="round" stroke-linejoin="round"/>
<path d="M9.41843 9.41843H12.3486" stroke="white" stroke-width="1.25" stroke-miterlimit="10" stroke-linecap="round" stroke-linejoin="round"/>
<path d="M16.367 17.3719H13.3531C12.8005 17.3719 12.3484 16.9198 12.3484 16.3673V15.0278C12.3484 14.4753 12.8005 14.0232 13.3531 14.0232H16.367C16.9195 14.0232 17.3716 14.4753 17.3716 15.0278V16.3673C17.3716 16.9198 16.9195 17.3719 16.367 17.3719Z" stroke="white" stroke-width="1.25" stroke-linecap="round" stroke-linejoin="round"/>
</svg>
