<svg width="30" height="30" viewBox="0 0 30 30" fill="none" xmlns="http://www.w3.org/2000/svg">
<path d="M27.5927 19.6915C25.756 19.6915 23.9526 19.4042 22.2436 18.8395C21.4062 18.5538 20.3767 18.8159 19.8656 19.3408L16.4924 21.8872C12.5805 19.799 10.1708 17.3901 8.11114 13.5075L10.5826 10.2222C11.2247 9.58098 11.455 8.64426 11.1791 7.76536C10.6119 6.0474 10.3238 4.24483 10.3238 2.40733C10.3239 1.07992 9.24395 0 7.91661 0H2.40726C1.07992 0 0 1.07992 0 2.40726C0 17.622 12.3779 29.9999 27.5927 29.9999C28.92 29.9999 30 28.92 30 27.5926V22.0987C29.9999 20.7714 28.92 19.6915 27.5927 19.6915Z" fill="white"/>
</svg>
