<svg width="18" height="18" viewBox="0 0 18 18" fill="none" xmlns="http://www.w3.org/2000/svg">
<path d="M5.44243 17.3719H12.14C15.5055 17.3719 16.1083 16.0241 16.2841 14.3832L16.912 7.68561C17.138 5.64285 16.552 3.97684 12.9772 3.97684H4.60524C1.03042 3.97684 0.444385 5.64285 0.670428 7.68561L1.29832 14.3832C1.47413 16.0241 2.07691 17.3719 5.44243 17.3719Z" stroke="white" stroke-width="1.25" stroke-miterlimit="10" stroke-linecap="round" stroke-linejoin="round"/>
<path d="M5.44258 3.97667V3.30692C5.44258 1.82508 5.44258 0.627896 8.1216 0.627896H9.46111C12.1401 0.627896 12.1401 1.82508 12.1401 3.30692V3.97667" stroke="white" stroke-width="1.25" stroke-miterlimit="10" stroke-linecap="round" stroke-linejoin="round"/>
<path d="M10.4656 9.83719V10.6744C10.4656 10.6828 10.4656 10.6828 10.4656 10.6911C10.4656 11.6037 10.4572 12.3488 8.79119 12.3488C7.13355 12.3488 7.1168 11.612 7.1168 10.6995V9.83719C7.1168 9 7.1168 9 7.954 9H9.62839C10.4656 9 10.4656 9 10.4656 9.83719Z" stroke="white" stroke-width="1.25" stroke-miterlimit="10" stroke-linecap="round" stroke-linejoin="round"/>
<path d="M16.8703 8.16264C14.9364 9.56913 12.7262 10.4063 10.4657 10.691" stroke="white" stroke-width="1.25" stroke-miterlimit="10" stroke-linecap="round" stroke-linejoin="round"/>
<path d="M0.93841 8.38878C2.8221 9.67806 4.94857 10.4567 7.1169 10.6994" stroke="white" stroke-width="1.25" stroke-miterlimit="10" stroke-linecap="round" stroke-linejoin="round"/>
</svg>
