<svg width="99" height="24" viewBox="0 0 99 24" fill="none" xmlns="http://www.w3.org/2000/svg">
<path d="M61.8307 18.6623V23.7168H61.176V20.1195C61.176 20.0655 61.1772 20.0081 61.1795 19.947C61.1842 19.886 61.1889 19.8239 61.1936 19.7605L59.5111 22.8474C59.4524 22.9624 59.3621 23.0199 59.2401 23.0199H59.1345C59.0125 23.0199 58.9233 22.9624 58.867 22.8474L57.1528 19.7499C57.1669 19.8813 57.1739 20.0045 57.1739 20.1195V23.7168H56.5157V18.6623H57.0719C57.1376 18.6623 57.188 18.6693 57.2232 18.6834C57.2608 18.6952 57.296 18.7304 57.3288 18.789L59.0183 21.8161C59.0512 21.8771 59.0817 21.9416 59.1098 22.0097C59.138 22.0777 59.165 22.1458 59.1908 22.2138C59.2401 22.0754 59.2976 21.9416 59.3633 21.8126L61.0211 18.789C61.0516 18.7304 61.0845 18.6952 61.1197 18.6834C61.1572 18.6693 61.2088 18.6623 61.2745 18.6623H61.8307Z" fill="#333333"/>
<path d="M51.7485 23.7168H50.9953V18.6623H51.7485V23.7168Z" fill="#333333"/>
<path d="M46.7904 23.7168H46.0477C45.9938 23.7168 45.9504 23.7027 45.9175 23.6746C45.8846 23.644 45.8588 23.6124 45.8401 23.5795L44.5342 21.4993C44.5154 21.558 44.4931 21.6084 44.4673 21.6506L43.1967 23.5795C43.1732 23.6124 43.1462 23.644 43.1157 23.6746C43.0852 23.7027 43.0465 23.7168 42.9996 23.7168H42.2991L44.0273 21.1156L42.373 18.6623H43.1157C43.1697 18.6623 43.2096 18.6705 43.2354 18.6869C43.2612 18.7034 43.2835 18.728 43.3023 18.7609L44.58 20.7425C44.5987 20.6815 44.6245 20.6252 44.6574 20.5736L45.8541 18.7749C45.8753 18.7374 45.8987 18.7092 45.9245 18.6905C45.9503 18.6717 45.9832 18.6623 46.0231 18.6623H46.7376L45.0727 21.084L46.7904 23.7168Z" fill="#333333"/>
<path d="M38.4227 23.1079L38.4192 23.7168H35.2866V18.6623H38.4192V19.2712H36.0398V20.8728H37.9546V21.4606H36.0398V23.1079H38.4227Z" fill="#333333"/>
<path d="M88.884 6.39918H89.5493C89.8168 6.39918 90.0385 6.36398 90.2145 6.29359C90.3905 6.21615 90.5419 6.09648 90.6686 5.93456L94.8818 0.602014C95.0578 0.376745 95.2409 0.221872 95.4309 0.137396C95.628 0.0458807 95.8744 0.000122464 96.1701 0.000122464H98.6199L93.4774 6.34638C93.1747 6.73356 92.8615 7.00811 92.5376 7.17002C92.7699 7.2545 92.9776 7.37417 93.1606 7.52905C93.3507 7.67688 93.5302 7.87399 93.6992 8.12038L99.0001 15.2692H96.4974C96.1595 15.2692 95.9061 15.2234 95.7372 15.1319C95.5752 15.0333 95.438 14.8925 95.3253 14.7095L91.0065 9.07074C90.8727 8.88066 90.7179 8.74691 90.5419 8.66947C90.3659 8.59204 90.1125 8.55332 89.7816 8.55332H88.884V15.2692H86.0435V0.000122464H88.884V6.39918Z" fill="#333333"/>
<path d="M82.6433 0.000122464V15.2692H81.1861C80.9608 15.2692 80.7707 15.234 80.6158 15.1636C80.468 15.0861 80.3237 14.9594 80.1829 14.7834L72.2105 4.60407C72.2527 5.06868 72.2738 5.4981 72.2738 5.89232V15.2692H69.7712V0.000122464H71.2601C71.3798 0.000122464 71.4819 0.00716212 71.5664 0.0212413C71.6579 0.0282813 71.7353 0.0494004 71.7987 0.0845987C71.8691 0.112758 71.9359 0.158516 71.9993 0.221872C72.0627 0.27819 72.133 0.355626 72.2105 0.454181L80.2146 10.6758C80.1935 10.4294 80.1759 10.1865 80.1618 9.94717C80.1477 9.70783 80.1407 9.48607 80.1407 9.28192V0.000122464H82.6433Z" fill="#333333"/>
<path d="M66.3524 15.2692H63.5013V0.000122464H66.3524V15.2692Z" fill="#333333"/>
<path d="M61.4734 12.925V15.2692H52.5295V0.000122464H55.37V12.925H61.4734Z" fill="#333333"/>
<path d="M43.5735 7.26506C44.1085 7.26506 44.5732 7.19818 44.9674 7.06443C45.3686 6.93067 45.696 6.74764 45.9494 6.51533C46.2099 6.27599 46.4035 5.9944 46.5302 5.67058C46.6569 5.34675 46.7203 4.99125 46.7203 4.60407C46.7203 3.8297 46.4633 3.23485 45.9494 2.81951C45.4426 2.40417 44.6647 2.1965 43.6158 2.1965H41.7995V7.26506H43.5735ZM50.8807 15.2692H48.3147C47.829 15.2692 47.477 15.0791 47.2588 14.6989L44.0487 9.8099C43.929 9.62687 43.7953 9.49663 43.6474 9.4192C43.5066 9.34176 43.2955 9.30304 43.0139 9.30304H41.7995V15.2692H38.959V0.000122464H43.6158C44.6506 0.000122464 45.5376 0.109237 46.2768 0.327467C47.023 0.538657 47.6319 0.837843 48.1035 1.22503C48.5822 1.61221 48.9342 2.07682 49.1595 2.61888C49.3848 3.15389 49.4974 3.74523 49.4974 4.39287C49.4974 4.90677 49.42 5.39251 49.2651 5.85009C49.1173 6.30766 48.899 6.72301 48.6104 7.09611C48.3288 7.46921 47.9768 7.79656 47.5545 8.07814C47.1391 8.35973 46.6639 8.58148 46.1289 8.74339C46.312 8.84899 46.4809 8.9757 46.6358 9.12353C46.7907 9.26433 46.9314 9.43328 47.0582 9.63039L50.8807 15.2692Z" fill="#333333"/>
<path d="M29.6624 2.25986V6.49422H35.0055V8.68003H29.6624V12.9989H36.4416V15.2692H26.8113V0.000122464H36.4416V2.25986H29.6624Z" fill="#333333"/>
<path d="M25.231 0.000122464L19.0643 15.2692H16.4983L10.3316 0.000122464H12.6124C12.8588 0.000122464 13.0594 0.0599598 13.2143 0.179635C13.3692 0.299309 13.4853 0.454181 13.5628 0.644252L17.1636 9.95773C17.2832 10.2604 17.3959 10.5948 17.5015 10.9609C17.6141 11.3199 17.7197 11.6965 17.8182 12.0908C17.9027 11.6965 17.9942 11.3199 18.0928 10.9609C18.1914 10.5948 18.3005 10.2604 18.4201 9.95773L21.9998 0.644252C22.0561 0.48234 22.1652 0.334507 22.3272 0.200754C22.4961 0.0669995 22.7003 0.000122464 22.9396 0.000122464H25.231Z" fill="#333333"/>
<path d="M2.85107 2.25973V6.49409H8.19417V8.67991H2.85107V12.9987H9.63027V15.269H0V0H9.63027V2.25973H2.85107Z" fill="#333333"/>
</svg>
