<svg width="30" height="30" viewBox="0 0 30 30" fill="none" xmlns="http://www.w3.org/2000/svg">
<path d="M21.8834 17.8839L21.8722 17.9777C19.1235 16.6077 18.836 16.4252 18.481 16.9577C18.2348 17.3264 17.5173 18.1627 17.301 18.4102C17.0823 18.6539 16.8648 18.6727 16.4935 18.5039C16.1185 18.3164 14.9148 17.9227 13.4898 16.6477C12.3798 15.654 11.6349 14.4352 11.4149 14.0602C11.0486 13.4277 11.8149 13.3377 12.5123 12.0178C12.6373 11.7553 12.5736 11.549 12.4811 11.3628C12.3873 11.1753 11.6411 9.3378 11.3286 8.60532C11.0286 7.87533 10.7199 7.96783 10.4886 7.96783C9.76864 7.90533 9.2424 7.91533 8.77866 8.39782C6.76119 10.6153 7.26993 12.9027 8.99615 15.3352C12.3886 19.7751 14.1961 20.5926 17.501 21.7276C18.3935 22.0113 19.2072 21.9713 19.851 21.8789C20.5685 21.7651 22.0597 20.9776 22.3709 20.0964C22.6897 19.2151 22.6897 18.4839 22.5959 18.3152C22.5034 18.1464 22.2584 18.0527 21.8834 17.8839Z" fill="white"/>
<path d="M25.6496 4.31172C16.0385 -4.97938 0.132498 1.75926 0.126248 14.8665C0.126248 17.4865 0.812487 20.0415 2.11997 22.2977L0 30.0001L7.91862 27.9351C17.7997 33.2725 29.9945 26.1851 29.9995 14.874C29.9995 10.9041 28.4495 7.16792 25.6308 4.36047L25.6496 4.31172ZM27.5021 14.8328C27.4946 24.3739 17.021 30.3326 8.73736 25.4626L8.28737 25.1951L3.59994 26.4139L4.85617 21.8577L4.55743 21.3889C-0.59749 13.1828 5.32491 2.458 15.0898 2.458C16.7204 2.4539 18.3357 2.77328 19.8422 3.39764C21.3486 4.02201 22.7162 4.93897 23.8659 6.09544C25.0218 7.23739 25.9387 8.59816 26.563 10.0983C27.1873 11.5985 27.5065 13.2079 27.5021 14.8328Z" fill="white"/>
</svg>
