<svg width="216" height="41" viewBox="0 0 216 41" fill="none" xmlns="http://www.w3.org/2000/svg">
<rect x="0.5" y="1.5" width="76" height="39" rx="19.5" stroke="#ACACAC"/>
<path d="M60 22C60.5523 22 61 21.5523 61 21C61 20.4477 60.5523 20 60 20L60 22ZM16.2929 20.2929C15.9024 20.6834 15.9024 21.3166 16.2929 21.7071L22.6569 28.0711C23.0474 28.4616 23.6805 28.4616 24.0711 28.0711C24.4616 27.6805 24.4616 27.0474 24.0711 26.6569L18.4142 21L24.0711 15.3431C24.4616 14.9526 24.4616 14.3195 24.0711 13.9289C23.6805 13.5384 23.0474 13.5384 22.6569 13.9289L16.2929 20.2929ZM60 21L60 20L17 20L17 21L17 22L60 22L60 21Z" fill="#ACACAC"/>
<rect x="215.5" y="39.5" width="134" height="39" rx="19.5" transform="rotate(180 215.5 39.5)" stroke="black"/>
<path d="M106 19C105.448 19 105 19.4477 105 20C105 20.5523 105.448 21 106 21L106 19ZM195.707 20.7071C196.098 20.3166 196.098 19.6834 195.707 19.2929L189.343 12.9289C188.953 12.5384 188.319 12.5384 187.929 12.9289C187.538 13.3195 187.538 13.9526 187.929 14.3432L193.586 20L187.929 25.6569C187.538 26.0474 187.538 26.6806 187.929 27.0711C188.319 27.4616 188.953 27.4616 189.343 27.0711L195.707 20.7071ZM106 20L106 21L195 21L195 20L195 19L106 19L106 20Z" fill="black"/>
</svg>
