<svg width="18" height="18" viewBox="0 0 18 18" fill="none" xmlns="http://www.w3.org/2000/svg">
<path d="M14.0196 4.94728C13.9693 4.93891 13.9108 4.93891 13.8605 4.94728C12.7053 4.90543 11.7845 3.9595 11.7845 2.78755C11.7845 1.5905 12.7472 0.627827 13.9442 0.627827C15.1413 0.627827 16.104 1.59887 16.104 2.78755C16.0956 3.9595 15.1748 4.90543 14.0196 4.94728Z" stroke="white" stroke-width="1.25" stroke-linecap="round" stroke-linejoin="round"/>
<path d="M13.1572 11.0415C14.3041 11.2341 15.5681 11.0331 16.4554 10.4388C17.6357 9.65193 17.6357 8.36279 16.4554 7.57592C15.5597 6.98157 14.279 6.78066 13.1321 6.98157" stroke="white" stroke-width="1.25" stroke-linecap="round" stroke-linejoin="round"/>
<path d="M3.94898 4.94728C3.99921 4.93891 4.05781 4.93891 4.10803 4.94728C5.26323 4.90543 6.18405 3.9595 6.18405 2.78755C6.18405 1.5905 5.22138 0.627827 4.02432 0.627827C2.82727 0.627827 1.8646 1.59887 1.8646 2.78755C1.87297 3.9595 2.79378 4.90543 3.94898 4.94728Z" stroke="white" stroke-width="1.25" stroke-linecap="round" stroke-linejoin="round"/>
<path d="M4.81125 11.0415C3.66442 11.2341 2.40039 11.0331 1.51306 10.4388C0.332748 9.65193 0.332748 8.36279 1.51306 7.57592C2.40876 6.98157 3.68953 6.78066 4.83636 6.98157" stroke="white" stroke-width="1.25" stroke-linecap="round" stroke-linejoin="round"/>
<path d="M8.99696 11.2005C8.94673 11.1922 8.88813 11.1922 8.83791 11.2005C7.68271 11.1587 6.76189 10.2128 6.76189 9.04081C6.76189 7.84375 7.72456 6.88108 8.92162 6.88108C10.1187 6.88108 11.0813 7.85212 11.0813 9.04081C11.073 10.2128 10.1522 11.1671 8.99696 11.2005Z" stroke="white" stroke-width="1.25" stroke-linecap="round" stroke-linejoin="round"/>
<path d="M6.5607 13.8376C5.38038 14.6245 5.38038 15.9136 6.5607 16.7005C7.90006 17.5962 10.0933 17.5962 11.4326 16.7005C12.6129 15.9136 12.6129 14.6245 11.4326 13.8376C10.1016 12.9503 7.90006 12.9503 6.5607 13.8376Z" stroke="white" stroke-width="1.25" stroke-linecap="round" stroke-linejoin="round"/>
</svg>
