<svg width="45" height="45" viewBox="0 0 45 45" fill="none" xmlns="http://www.w3.org/2000/svg">
<g clip-path="url(#clip0_256_838)">
<path d="M0 6C0 2.68629 2.68629 0 6 0H13C16.3137 0 19 2.68629 19 6V12C19 15.3137 16.3137 18 13 18H6C2.68629 18 0 15.3137 0 12V6Z" fill="white"/>
<path d="M0 33C0 29.6863 2.68629 27 6 27H13C16.3137 27 19 29.6863 19 33V39C19 42.3137 16.3137 45 13 45H6C2.68629 45 0 42.3137 0 39V33Z" fill="white"/>
<path d="M26 33C26 29.6863 28.6863 27 32 27H39C42.3137 27 45 29.6863 45 33V39C45 42.3137 42.3137 45 39 45H32C28.6863 45 26 42.3137 26 39V33Z" fill="white"/>
<path d="M26 6C26 2.68629 28.6863 0 32 0H39C42.3137 0 45 2.68629 45 6V12C45 15.3137 42.3137 18 39 18H32C28.6863 18 26 15.3137 26 12V6Z" fill="white"/>
<path d="M35.5809 8.32666C34.9785 8.32666 34.4884 8.81683 34.4884 9.41914C34.4884 10.0215 34.9785 10.5116 35.5809 10.5116C36.1833 10.5116 36.6733 10.0215 36.6733 9.41914C36.6733 8.81674 36.1833 8.32666 35.5809 8.32666ZM22.5 12.8148C17.1596 12.8148 12.8148 17.1596 12.8148 22.5C12.8148 27.8404 17.1596 32.1853 22.5 32.1853C27.8405 32.1853 32.1853 27.8405 32.1853 22.5001C32.1853 17.1597 27.8405 12.8148 22.5 12.8148Z" fill="white"/>
<path d="M32.6639 0H12.3361C5.53395 0 0 5.53395 0 12.3362V32.6639C0 39.4661 5.53395 45 12.3361 45H32.6639C39.4661 45 45 39.4661 45 32.6639V12.3362C45 5.53395 39.4661 0 32.6639 0ZM22.5 34.8427C15.6942 34.8427 10.1574 29.3058 10.1574 22.5C10.1574 15.6942 15.6943 10.1575 22.5 10.1575C29.3057 10.1575 34.8427 15.6943 34.8427 22.5C34.8427 29.3057 29.3057 34.8427 22.5 34.8427ZM35.5808 13.1692C33.5131 13.1692 31.8309 11.487 31.8309 9.41924C31.8309 7.35152 33.5131 5.66921 35.5808 5.66921C37.6486 5.66921 39.3308 7.35144 39.3308 9.41915C39.3308 11.4869 37.6486 13.1692 35.5808 13.1692Z" fill="white"/>
<circle cx="22.5" cy="22.5" r="11" fill="white" stroke="black" stroke-width="3"/>
<circle cx="36.5" cy="8.5" r="2.5" fill="white" stroke="black" stroke-width="2"/>
</g>
<defs>
<clipPath id="clip0_256_838">
<rect width="45" height="45" fill="white"/>
</clipPath>
</defs>
</svg>
