<svg width="30" height="30" viewBox="0 0 30 30" fill="none" xmlns="http://www.w3.org/2000/svg">
<path d="M29.2489 3.62152C29.224 3.54352 28.7644 3.67852 28.6861 3.69292C27.8671 3.87802 27.076 4.17382 26.3206 4.54432C24.796 5.28862 23.428 6.31822 22.1314 7.40122C19.2814 9.78442 16.6807 12.4634 14.3224 15.3314C14.2654 15.0677 13.3354 10.9136 11.5579 9.98032C10.9666 9.67042 10.4143 9.69532 10.4143 9.69532C9.65202 9.72742 8.98932 10.1975 8.67582 10.6823C7.98492 11.7578 8.38362 12.8195 8.77182 13.8134C9.53802 15.7796 10.3075 17.7428 11.0734 19.7093C11.3299 20.3648 11.6182 21.0629 12.2029 21.4547C12.9757 21.9749 14.0587 21.7826 14.8213 21.2483C15.5869 20.7173 16.1071 19.9124 16.6201 19.1321C16.9195 18.6761 17.2261 18.2237 17.5321 17.7713C18.5591 16.2668 19.6282 14.7916 20.7382 13.3472C21.8479 11.9031 22.9966 10.4894 24.1831 9.10762C25.3692 7.72564 26.5952 6.37847 27.8596 5.06782C28.1767 4.73992 28.4938 4.41232 28.8145 4.08832C28.8784 4.02412 29.2738 3.69982 29.2489 3.62152Z" fill="#E9AA00"/>
<path d="M13.8951 1.855C12.1379 1.8524 10.3981 2.20368 8.7795 2.8879C7.21762 3.54839 5.79855 4.50533 4.6008 5.7058C3.39961 6.90307 2.44257 8.32238 1.7829 9.8848C1.0989 11.5048 0.75 13.2259 0.75 14.9998C0.75 16.7737 1.0992 18.4948 1.7829 20.1154C2.44258 21.6778 3.39962 23.0971 4.6008 24.2944C5.79799 25.4955 7.21719 26.4526 8.7795 27.1123C10.398 27.7966 12.1378 28.1479 13.8951 28.1452C15.669 28.1452 17.3898 27.796 19.0104 27.1123C20.5724 26.4518 21.9916 25.4949 23.1894 24.2944C24.3905 23.0971 25.3474 21.6778 26.007 20.1154C26.6914 18.497 27.0428 16.7573 27.0402 15.0001C27.0431 13.0214 26.5973 11.0679 25.7364 9.2863L25.1592 9.9487C24.7259 10.4541 24.2973 10.9635 23.8734 11.4769C24.2737 12.6083 24.4773 13.7999 24.4755 15.0001C24.4755 20.8318 19.7301 25.5805 13.8951 25.5805C8.0631 25.5805 3.3147 20.8351 3.3147 15.0001C3.3147 9.1684 8.0598 4.4197 13.8951 4.4197C16.3939 4.41686 18.8122 5.30334 20.7171 6.9205C20.913 6.7531 21.1089 6.5854 21.3084 6.4183C21.7752 6.02516 22.2528 5.64502 22.7406 5.2783C21.6417 4.27591 20.3805 3.4676 19.0107 2.8879C17.3922 2.20357 15.6524 1.85228 13.8951 1.855Z" fill="#E9AA00"/>
</svg>
