<svg width="20" height="20" viewBox="0 0 20 20" fill="none" xmlns="http://www.w3.org/2000/svg">
<g clip-path="url(#clip0_251_510)">
<path d="M2.78551 10.5153C3.64612 10.5153 4.34309 9.81533 4.34309 8.95776C4.34309 8.62745 4.23703 8.32139 4.06127 8.06685L6.68248 5.43654C6.93097 5.60624 7.234 5.70624 7.55824 5.70624C7.9643 5.70624 8.33097 5.54564 8.60975 5.29109L10.934 7.01533C10.834 7.22139 10.7734 7.44867 10.7734 7.69109C10.7734 8.5517 11.4734 9.24867 12.331 9.24867C13.1916 9.24867 13.8885 8.54867 13.8885 7.69109C13.8885 7.33957 13.7673 7.02139 13.5734 6.76079L16.6825 3.33957L16.5219 4.49715C16.5007 4.65776 16.6098 4.80624 16.7704 4.82745C16.7855 4.83048 16.7976 4.83048 16.8128 4.83048C16.9552 4.83048 17.0825 4.72442 17.1037 4.57897L17.3976 2.482C17.3976 2.47594 17.3946 2.46988 17.3946 2.46079C17.3976 2.43048 17.3946 2.40321 17.3855 2.37594C17.3825 2.36382 17.3795 2.34867 17.3764 2.33654C17.3673 2.30927 17.3491 2.28503 17.331 2.26079C17.3249 2.2517 17.3219 2.23957 17.3128 2.23351C17.3098 2.23048 17.3067 2.23048 17.3037 2.22745C17.3037 2.22745 17.3037 2.22442 17.3007 2.22442C17.2976 2.22442 17.2976 2.22139 17.2946 2.22139C17.237 2.17291 17.1643 2.14564 17.0916 2.14867H17.0885C17.0795 2.14867 17.0704 2.14867 17.0643 2.14867L14.9673 2.44261C14.8067 2.46382 14.6946 2.6123 14.7188 2.77291C14.7401 2.93351 14.8885 3.04564 15.0491 3.02139L16.3461 2.83958L13.1431 6.36685C12.9067 6.22139 12.631 6.13351 12.334 6.13351C11.9279 6.13351 11.5613 6.29412 11.2855 6.54867L8.96127 4.82442C9.06127 4.62139 9.11885 4.39412 9.11885 4.1517C9.11885 3.29109 8.41884 2.59412 7.56127 2.59412C6.70369 2.59412 6.00369 3.29412 6.00369 4.1517C6.00369 4.47594 6.10369 4.77594 6.27339 5.02745L3.64612 7.66079C3.40066 7.49715 3.10369 7.40018 2.78854 7.40018C1.92794 7.40018 1.23097 8.10018 1.23097 8.95776C1.22794 9.81836 1.92491 10.5153 2.78551 10.5153ZM12.334 6.71836C12.8704 6.71836 13.3067 7.15473 13.3067 7.69109C13.3067 8.22745 12.8704 8.66382 12.334 8.66382C11.7976 8.66382 11.3613 8.22745 11.3613 7.69109C11.3613 7.15473 11.7976 6.71836 12.334 6.71836ZM7.55824 3.17594C8.0946 3.17594 8.53097 3.6123 8.53097 4.14867C8.53097 4.68503 8.0946 5.12139 7.55824 5.12139C7.02188 5.12139 6.58551 4.68503 6.58551 4.14867C6.58551 3.6123 7.02188 3.17594 7.55824 3.17594ZM2.78551 7.98503C3.32188 7.98503 3.75824 8.42139 3.75824 8.95776C3.75824 9.49412 3.32188 9.93048 2.78551 9.93048C2.24915 9.93048 1.81279 9.49412 1.81279 8.95776C1.81279 8.42139 2.24915 7.98503 2.78551 7.98503Z" stroke="white" stroke-width="0.416667"/>
<path d="M19.325 17.2546H18.7734V7.46668C18.7734 6.98183 18.3795 6.58789 17.8946 6.58789H16.325C15.8401 6.58789 15.4462 6.98183 15.4462 7.46668V17.2546H14.0007V11.8606C14.0007 11.3758 13.6068 10.9818 13.1219 10.9818H11.5522C11.0674 10.9818 10.6734 11.3758 10.6734 11.8606V17.2515H9.22798V9.51819C9.22798 9.03335 8.83404 8.63941 8.34919 8.63941H6.7795C6.29465 8.63941 5.90071 9.03335 5.90071 9.51819V17.2546H4.45526V14.5C4.45526 14.0152 4.06132 13.6212 3.57647 13.6212H2.00071C1.51586 13.6212 1.12192 14.0152 1.12192 14.5V17.2546H0.567377C0.406771 17.2546 0.273438 17.3849 0.273438 17.5485C0.273438 17.7121 0.40374 17.8424 0.567377 17.8424H19.3219C19.4825 17.8424 19.6159 17.7121 19.6159 17.5485C19.6159 17.3849 19.4856 17.2546 19.325 17.2546ZM1.70677 17.2546V14.5C1.70677 14.3394 1.83707 14.2061 2.00071 14.2061H3.57041C3.73101 14.2061 3.86435 14.3364 3.86435 14.5V17.2546H1.70677ZM6.4795 17.2546V9.51819C6.4795 9.35759 6.6098 9.22425 6.77344 9.22425H8.34313C8.50374 9.22425 8.63707 9.35456 8.63707 9.51819V17.2546H6.4795ZM11.2553 17.2546V11.8606C11.2553 11.7 11.3856 11.5667 11.5492 11.5667H13.1189C13.2795 11.5667 13.4128 11.697 13.4128 11.8606V17.2515H11.2553V17.2546ZM16.028 17.2546V7.46668C16.028 7.30607 16.1583 7.17274 16.3219 7.17274H17.8916C18.0522 7.17274 18.1856 7.30304 18.1856 7.46668V17.2546H16.028Z" fill="white" stroke="white" stroke-width="0.416667"/>
</g>
<defs>
<clipPath id="clip0_251_510">
<rect width="20" height="20" fill="white"/>
</clipPath>
</defs>
</svg>
