<svg width="45" height="45" viewBox="0 0 45 45" fill="none" xmlns="http://www.w3.org/2000/svg">
<g clip-path="url(#clip0_255_819)">
<path d="M39.4368 0.164062H5.89134C4.37237 0.164063 2.91561 0.76747 1.84154 1.84154C0.76747 2.91561 0.164063 4.37237 0.164062 5.89134V39.4368C0.164063 40.9558 0.76747 42.4125 1.84154 43.4866C2.91561 44.5607 4.37237 45.1641 5.89134 45.1641H22.3235V26.4404H18.5788V18.9509H22.2925V15.5663C22.2925 12.5031 23.7517 7.71731 30.1735 7.71731L35.9586 7.74053V14.1572H31.7574C31.0744 14.1572 30.1024 14.4974 30.1024 15.9564V18.9515H36.0541L35.3709 26.4409H29.8129V45.1641H39.4368C40.9558 45.1641 42.4125 44.5607 43.4866 43.4866C44.5607 42.4125 45.1641 40.9558 45.1641 39.4368V5.89134C45.1641 4.37237 44.5607 2.91561 43.4866 1.84154C42.4125 0.76747 40.9558 0.164063 39.4368 0.164062Z" fill="white"/>
</g>
<defs>
<clipPath id="clip0_255_819">
<rect width="45" height="45" fill="white"/>
</clipPath>
</defs>
</svg>
