<svg width="21" height="19" viewBox="0 0 21 19" fill="none" xmlns="http://www.w3.org/2000/svg">
<path d="M20.9989 0.0241623C20.974 -0.0540213 20.5133 0.0812964 20.4348 0.0957303C19.6139 0.281266 18.8209 0.577762 18.0637 0.949135C16.5355 1.69519 15.1643 2.72721 13.8647 3.81276C11.008 6.20157 8.40113 8.88688 6.03728 11.7616C5.98015 11.4973 5.04796 7.33343 3.26628 6.39793C2.67358 6.0873 2.11998 6.11226 2.11998 6.11226C1.35589 6.14443 0.691629 6.61564 0.377391 7.10158C-0.315135 8.17961 0.0845029 9.24381 0.473617 10.2401C1.24162 12.2109 2.01293 14.1787 2.78063 16.1498C3.03774 16.8069 3.32672 17.5066 3.91279 17.8993C4.68741 18.4208 5.77296 18.228 6.53736 17.6925C7.30476 17.1602 7.82618 16.3534 8.34039 15.5713C8.6405 15.1142 8.94782 14.6607 9.25454 14.2073C10.284 12.6993 11.3556 11.2205 12.4682 9.77276C13.5805 8.32522 14.7319 6.90817 15.9212 5.52318C17.11 4.13795 18.3389 2.78761 19.6063 1.47387C19.9242 1.14519 20.242 0.816824 20.5635 0.492061C20.6275 0.42771 21.0239 0.102647 20.9989 0.0241623Z" fill="#E9AA00"/>
</svg>
