<svg width="27" height="27" viewBox="0 0 27 27" fill="none" xmlns="http://www.w3.org/2000/svg">
<path d="M13.5 1.60569e-05C11.6953 -0.00264743 9.90853 0.358117 8.24626 1.0608C6.64221 1.73912 5.18484 2.7219 3.95475 3.95477C2.72114 5.18436 1.73826 6.64199 1.06078 8.24658C0.358319 9.91032 0 11.6779 0 13.4997C0 15.3215 0.358627 17.089 1.06078 18.7534C1.73827 20.358 2.72115 21.8156 3.95475 23.0452C5.18426 24.2788 6.64178 25.2616 8.24626 25.9391C9.90849 26.642 11.6953 27.0027 13.5 26.9999C15.3217 26.9999 17.089 26.6413 18.7533 25.9391C20.3575 25.2609 21.815 24.2781 23.0452 23.0452C24.2787 21.8155 25.2614 20.3579 25.9388 18.7534C26.6417 17.0913 27.0026 15.3046 26.9999 13.5C27.0029 11.4679 26.5451 9.46158 25.6609 7.63193L25.0681 8.31221C24.6231 8.83126 24.1829 9.35444 23.7476 9.88166C24.1587 11.0436 24.3679 12.2674 24.366 13.5C24.366 19.4891 19.4925 24.366 13.5 24.366C7.51052 24.366 2.63394 19.4925 2.63394 13.5C2.63394 7.51084 7.50713 2.63395 13.5 2.63395C16.0662 2.63104 18.5498 3.54145 20.5061 5.20226C20.7073 5.03034 20.9085 4.85811 21.1134 4.6865C21.5928 4.28276 22.0833 3.89235 22.5842 3.51573C21.4557 2.48628 20.1604 1.65615 18.7537 1.0608C17.0914 0.357996 15.3047 -0.00277373 13.5 1.60569e-05Z" fill="#E9AA00"/>
</svg>
