<svg width="45" height="45" viewBox="0 0 45 45" fill="none" xmlns="http://www.w3.org/2000/svg">
<path d="M38.8636 0H6.13636C4.5089 0 2.94809 0.646508 1.7973 1.7973C0.646508 2.94809 0 4.5089 0 6.13636L0 38.8636C0 40.4911 0.646508 42.0519 1.7973 43.2027C2.94809 44.3535 4.5089 45 6.13636 45H38.8636C40.4911 45 42.0519 44.3535 43.2027 43.2027C44.3535 42.0519 45 40.4911 45 38.8636V6.13636C45 4.5089 44.3535 2.94809 43.2027 1.7973C42.0519 0.646508 40.4911 0 38.8636 0ZM15.3409 35.6114C15.3412 35.7361 15.317 35.8598 15.2694 35.9752C15.2219 36.0905 15.1521 36.1954 15.064 36.2838C14.9759 36.3721 14.8712 36.4422 14.7559 36.4901C14.6407 36.5379 14.5171 36.5625 14.3923 36.5625H10.35C10.225 36.5628 10.1012 36.5385 9.98562 36.4908C9.87007 36.4431 9.76508 36.3731 9.67669 36.2847C9.5883 36.1963 9.51826 36.0913 9.47058 35.9757C9.4229 35.8602 9.39853 35.7364 9.39886 35.6114V18.6648C9.39886 18.4125 9.49907 18.1706 9.67745 17.9922C9.85582 17.8138 10.0977 17.7136 10.35 17.7136H14.3923C14.6441 17.7143 14.8854 17.8148 15.0632 17.9931C15.2411 18.1714 15.3409 18.413 15.3409 18.6648V35.6114ZM12.3699 16.108C11.6114 16.108 10.8698 15.883 10.2391 15.4616C9.60845 15.0402 9.11688 14.4412 8.8266 13.7404C8.53632 13.0396 8.46037 12.2685 8.60835 11.5245C8.75633 10.7806 9.1216 10.0972 9.65797 9.56081C10.1943 9.02445 10.8777 8.65917 11.6217 8.51119C12.3656 8.36321 13.1368 8.43916 13.8376 8.72944C14.5384 9.01972 15.1373 9.51129 15.5588 10.142C15.9802 10.7727 16.2051 11.5142 16.2051 12.2727C16.2051 13.2899 15.801 14.2654 15.0818 14.9846C14.3626 15.7039 13.3871 16.108 12.3699 16.108ZM36.4705 35.6778C36.4708 35.7928 36.4484 35.9066 36.4046 36.0129C36.3608 36.1191 36.2964 36.2156 36.2151 36.2969C36.1338 36.3782 36.0373 36.4426 35.931 36.4864C35.8248 36.5302 35.7109 36.5526 35.596 36.5523H31.2494C31.1345 36.5526 31.0206 36.5302 30.9144 36.4864C30.8082 36.4426 30.7116 36.3782 30.6304 36.2969C30.5491 36.2156 30.4847 36.1191 30.4409 36.0129C30.397 35.9066 30.3747 35.7928 30.375 35.6778V27.7389C30.375 26.5526 30.7227 22.5435 27.2736 22.5435C24.6017 22.5435 24.0571 25.2869 23.9497 26.5193V35.6881C23.9497 35.9178 23.8594 36.1383 23.6981 36.3019C23.5369 36.4655 23.3178 36.5591 23.0881 36.5625H18.8898C18.7751 36.5625 18.6615 36.5399 18.5555 36.4959C18.4496 36.4519 18.3534 36.3875 18.2724 36.3062C18.1914 36.225 18.1272 36.1286 18.0835 36.0225C18.0399 35.9164 18.0176 35.8028 18.0179 35.6881V18.5906C18.0176 18.4759 18.0399 18.3623 18.0835 18.2562C18.1272 18.1501 18.1914 18.0537 18.2724 17.9725C18.3534 17.8912 18.4496 17.8268 18.5555 17.7828C18.6615 17.7388 18.7751 17.7162 18.8898 17.7162H23.0881C23.32 17.7162 23.5424 17.8083 23.7064 17.9723C23.8704 18.1363 23.9625 18.3587 23.9625 18.5906V20.0685C24.9545 18.5778 26.4247 17.4324 29.5619 17.4324C36.5114 17.4324 36.4653 23.9216 36.4653 27.4858L36.4705 35.6778Z" fill="white"/>
</svg>
